<?xml version="1.0" encoding="UTF-8"?>
<svg version="1.1" xmlns="http://www.w3.org/2000/svg" width="896" height="1152">
<path d="M0 0 C295.68 0 591.36 0 896 0 C896 380.16 896 760.32 896 1152 C600.32 1152 304.64 1152 0 1152 C0 771.84 0 391.68 0 0 Z " fill="#6F6F6F" transform="translate(0,0)"/>
<path d="M0 0 C1.69658254 0.0215681 3.3932012 0.04046812 5.08984375 0.05664062 C12.66933432 0.15192808 20.19099741 0.40881158 27.734375 1.19458008 C59.99058777 4.47224876 94.48971597 3.92166056 126.7421875 0.921875 C133.72102308 0.32524461 140.69012843 0.18091563 147.68994141 0.14233398 C149.15390617 0.13072041 150.61782563 0.11012376 152.08154297 0.08081055 C163.45118166 -0.14546979 170.0121383 1.14721064 179.125 8.4375 C180.34167815 9.06643746 181.57251098 9.66836842 182.8125 10.25 C185.88012086 11.70809862 188.44120145 13.37539714 191.13671875 15.43359375 C199.2638865 21.18335067 208.34353351 25.30060498 217.25 29.6875 C219.14643521 30.62818899 221.04275621 31.56910827 222.93896484 32.51025391 C239.61933885 40.76679428 256.46287075 48.56522369 273.54418945 55.95532227 C280.1418867 58.83595855 286.56541139 62.03758163 292.96533203 65.33105469 C295.28159946 66.51772934 297.60756744 67.68414487 299.93359375 68.8515625 C318.86800502 78.45263646 335.5592438 90.60026608 346.125 109.4375 C346.63160156 110.25089844 347.13820313 111.06429687 347.66015625 111.90234375 C358.7474024 131.09067108 362.49388423 156.08783851 367.27197266 177.45581055 C368.39000686 182.39885617 369.59825794 187.27052114 371.0625 192.125 C373.13931755 199.11298036 374.72416434 206.19927184 376.3125 213.3125 C376.70586548 215.0617981 376.70586548 215.0617981 377.10717773 216.84643555 C379.1631553 226.17648184 379.1631553 226.17648184 379.67578125 230.8828125 C380.11294892 234.34213931 381.02448354 237.14183164 382.125 240.4375 C382.57780606 242.39778048 382.99731684 244.3659899 383.38671875 246.33984375 C383.61504395 247.46632324 383.84336914 248.59280273 384.07861328 249.75341797 C384.44188721 251.54610107 384.44188721 251.54610107 384.8125 253.375 C387.33370895 265.49856198 390.57436883 277.22437441 394.35400391 289.0078125 C396.07949771 294.44546744 397.6328571 299.93149269 399.125 305.4375 C399.3621875 306.30632812 399.599375 307.17515625 399.84375 308.0703125 C400.0396875 308.85148437 400.235625 309.63265625 400.4375 310.4375 C400.59863281 311.076875 400.75976562 311.71625 400.92578125 312.375 C401.22096708 315.43104156 401.10801887 317.50014599 400.125 320.4375 C397.65548199 321.83911833 395.72432998 322.66858395 393.0625 323.5 C392.33861084 323.74693604 391.61472168 323.99387207 390.86889648 324.24829102 C388.62855175 325.00397924 386.37873908 325.7228998 384.125 326.4375 C382.89007812 326.84742188 381.65515625 327.25734375 380.3828125 327.6796875 C376.31387652 328.99585495 372.22641978 330.2274003 368.125 331.4375 C367.29581055 331.68580566 366.46662109 331.93411133 365.61230469 332.18994141 C351.44399006 336.4063947 337.14975023 339.93038838 322.75 343.25 C321.90702362 343.44476929 321.06404724 343.63953857 320.19552612 343.84020996 C285.41489632 351.85056668 285.41489632 351.85056668 278.125 347.75 C274.43101957 341.63184491 272.125 334.60006088 272.125 327.4375 C271.465 327.4375 270.805 327.4375 270.125 327.4375 C270.13220566 328.3510022 270.13941132 329.26450439 270.14683533 330.20568848 C270.18668055 339.16739043 269.95245598 348.07861821 269.50390625 357.03125 C269.43866138 358.39284481 269.37380663 359.75445836 269.30931091 361.11608887 C269.14003434 364.67489124 268.96697732 368.23349737 268.79260254 371.79205322 C267.1274093 405.78346293 265.95019691 439.69876532 265.99462891 473.73510742 C266.0003301 478.12339453 265.99691923 482.51162109 265.99120426 486.89990616 C265.95834752 516.3683168 266.62550904 545.67084354 268.9375 575.0625 C269.11508758 577.38455815 269.29207448 579.70666231 269.46850586 582.02880859 C269.92313282 587.99168388 270.38521906 593.95395069 270.8503418 599.91601562 C271.29285993 605.58968815 271.73231728 611.26359748 272.171875 616.9375 C272.25649994 618.02925537 272.34112488 619.12101074 272.42831421 620.24584961 C273.25845049 630.96275086 274.08066765 641.68024178 274.8939209 652.3984375 C275.11966167 655.36729242 275.34738078 658.3359911 275.57519531 661.3046875 C277.26182148 683.40359775 278.48852589 705.43794655 278.8347168 727.60205078 C278.96201236 735.60988585 279.21069296 743.53727898 279.89794922 751.52172852 C280.2591549 756.16030855 280.34743894 760.78657173 280.375 765.4375 C280.395625 766.33855469 280.41625 767.23960937 280.4375 768.16796875 C280.46628551 773.03991621 280.47211613 776.59559279 277.125 780.4375 C273.12421937 783.5891941 268.7928542 784.29653333 263.875 785.0625 C263.16214844 785.18367187 262.44929687 785.30484375 261.71484375 785.4296875 C252.31152129 786.98843645 242.97393638 787.66845486 233.45062256 787.9899292 C232.22710075 788.03200272 231.00357894 788.07407625 229.74298072 788.11742473 C216.48963612 788.53879309 203.2403835 788.59451266 189.98135519 788.59754276 C186.38474071 788.5994401 182.78813652 788.60700806 179.19152832 788.61367798 C171.38137102 788.6270694 163.57121898 788.63325374 155.76105213 788.63768864 C150.86065632 788.64048066 145.96026239 788.64472249 141.05986786 788.64919281 C127.41920726 788.66135391 113.77854813 788.67166349 100.13788223 788.6750679 C99.27063223 788.67528747 98.40338222 788.67550703 97.50985192 788.67573325 C96.64088902 788.67595153 95.77192613 788.67616981 94.87663102 788.6763947 C93.11664724 788.67683812 91.35666346 788.67728469 89.59667969 788.67773438 C88.72372323 788.6779558 87.85076678 788.67817723 86.9513571 788.67840537 C72.81303852 788.6823519 58.6747715 788.69981581 44.53647283 788.7230939 C29.92662955 788.74694936 15.31681203 788.75927593 0.706949 788.76043582 C-7.45829237 788.76134397 -15.62346621 788.76687645 -23.78868866 788.78525543 C-30.73923813 788.80084912 -37.68969912 788.80566538 -44.64026281 788.79751733 C-48.16845272 788.79367928 -51.69646557 788.79419241 -55.22463226 788.80857468 C-69.97072561 788.85831069 -84.55506836 788.41661668 -99.23297119 787.04022217 C-99.90881554 786.9776421 -100.58465989 786.91506204 -101.28098437 786.85058561 C-122.01945374 784.8882872 -122.01945374 784.8882872 -129.875 779.4375 C-131.67233575 776.59218507 -132.12889355 774.42074868 -132.13183594 771.08325195 C-132.13597504 769.74426094 -132.13597504 769.74426094 -132.14019775 768.3782196 C-132.13002625 767.38328995 -132.11985474 766.38836029 -132.109375 765.36328125 C-132.10323181 764.28468338 -132.09708862 763.20608551 -132.09075928 762.09480286 C-131.91742064 745.84347086 -131.13036555 729.60389527 -130.38574219 713.37084961 C-130.21188548 709.57457576 -130.04519231 705.77810717 -129.88574219 701.98120117 C-128.94556753 679.6195478 -127.54338667 657.37614185 -125.41442871 635.09570312 C-123.38698699 613.80101913 -121.9466892 592.47390823 -120.625 571.125 C-120.55959015 570.07470863 -120.4941803 569.02441727 -120.42678833 567.94229889 C-117.9743965 528.39144609 -116.93012494 489.05080192 -117.875 449.4375 C-117.90589722 448.14086426 -117.93679443 446.84422852 -117.96862793 445.50830078 C-118.58494084 420.65993208 -119.6557223 395.83988546 -121.13220215 371.02841187 C-121.99338747 356.48824231 -122.09778744 342.00265702 -121.875 327.4375 C-122.535 327.4375 -123.195 327.4375 -123.875 327.4375 C-123.978125 328.55125 -124.08125 329.665 -124.1875 330.8125 C-124.96209096 337.02029324 -126.38599337 343.20399005 -129.875 348.4375 C-160.56914279 353.17946937 -199.00568782 338.38450574 -228.375 329.6875 C-229.61515869 329.32293701 -230.85531738 328.95837402 -232.13305664 328.58276367 C-248.7577261 323.54732398 -248.7577261 323.54732398 -252.875 318.4375 C-252.58836426 313.86755286 -251.47696633 309.6298329 -250.1875 305.25 C-249.82785156 304.00734375 -249.46820313 302.7646875 -249.09765625 301.484375 C-248.29720822 298.79047141 -247.44590614 296.11957939 -246.55859375 293.453125 C-241.82681565 278.93378644 -238.96984893 264.05205191 -236 249.09765625 C-235.48537134 246.51174497 -234.97015099 243.9259541 -234.45407104 241.34033203 C-234.04699513 239.29969638 -233.64111663 237.25882168 -233.2361145 235.21777344 C-229.46120949 216.27103457 -225.06304783 197.53657569 -220.3125 178.8125 C-219.65820111 176.21517114 -219.00596169 173.61732605 -218.35351562 171.01953125 C-216.8158016 164.90660835 -215.2653202 158.79705989 -213.70507812 152.68984985 C-213.17452884 150.61109144 -212.64585931 148.53185177 -212.11962891 146.45199585 C-211.45910395 143.8428134 -210.79139236 141.23559211 -210.12109375 138.62890625 C-209.93945175 137.90605438 -209.75780975 137.18320251 -209.57066345 136.43844604 C-207.56567497 128.72557637 -204.43091165 121.55127494 -200.875 114.4375 C-200.34132812 113.36886719 -199.80765625 112.30023438 -199.2578125 111.19921875 C-194.91712782 103.19283625 -189.25330066 96.83361715 -182.875 90.4375 C-181.73804688 89.26574219 -181.73804688 89.26574219 -180.578125 88.0703125 C-161.72628823 69.80353273 -134.14067184 59.87052092 -110.703125 49.0625 C-95.36583598 41.98511177 -80.11258992 34.72657241 -64.875 27.4375 C-64.24116394 27.13485229 -63.60732788 26.83220459 -62.95428467 26.52038574 C-59.27277365 24.76134878 -55.60172724 22.98223658 -51.9375 21.1875 C-51.0933252 20.78257324 -50.24915039 20.37764648 -49.37939453 19.96044922 C-44.85082429 17.71267107 -41.15852303 15.24380447 -37.46606445 11.77832031 C-35.16912228 9.8426434 -32.64693489 8.72704207 -29.91894531 7.50610352 C-27.82946071 6.51528648 -27.82946071 6.51528648 -26.16699219 4.94506836 C-18.54808825 -1.59465663 -9.43925937 -0.25785907 0 0 Z " fill="#151B26" transform="translate(372.875,183.5625)"/>
<path d="M0 0 C33.99 0 67.98 0 103 0 C103 380.16 103 760.32 103 1152 C67.36 1152 31.72 1152 -5 1152 C-5 1151.67 -5 1151.34 -5 1151 C-4.29617188 1150.86464844 -3.59234375 1150.72929688 -2.8671875 1150.58984375 C11.74525559 1147.40410224 23.92358734 1141.14346185 32.39453125 1128.55859375 C37.2309275 1120.85095496 40.31393951 1113.64412681 40.25299966 1104.40889639 C40.25757931 1103.28526026 40.25757931 1103.28526026 40.26225147 1102.13892441 C40.27006269 1099.62168341 40.26361491 1097.10468177 40.25726891 1094.58743954 C40.25996155 1092.75957127 40.26352895 1090.93170411 40.26789337 1089.10383907 C40.27737863 1084.05655958 40.27434192 1079.009352 40.26933783 1073.9620689 C40.26607964 1068.48012724 40.2743467 1062.99820122 40.28115618 1057.5162645 C40.29147993 1047.90018248 40.29429586 1038.28412061 40.29224396 1028.6680336 C40.28934241 1015.03704055 40.29651726 1001.40606918 40.3065231 987.77508014 C40.32682044 960.08342585 40.33293541 932.39177965 40.33410732 904.70011877 C40.33423682 901.71861847 40.3343727 898.73711816 40.33451414 895.75561786 C40.33454815 895.01576155 40.33458216 894.27590523 40.3346172 893.51362904 C40.33543389 877.12314421 40.33981303 860.73266093 40.34482583 844.34217692 C40.34688254 837.59442508 40.34886259 830.84667322 40.35085833 824.09892136 C40.35107951 823.35336246 40.35130069 822.60780356 40.35152857 821.83965196 C40.36417857 779.10934887 40.37242661 736.37904678 40.37151146 693.64874172 C40.3714799 692.04931087 40.37144843 690.44988002 40.37141704 688.85044917 C40.37127027 681.62905699 40.37109393 674.4076648 40.37090927 667.18627262 C40.37082703 663.96603441 40.37074673 660.7457962 40.37066665 657.52555799 C40.37062586 655.91376956 40.37058382 654.30198112 40.37054053 652.69019269 C40.36918016 601.72826438 40.38381178 550.76636387 40.41162109 499.80444336 C40.4186231 486.96591672 40.42556201 474.12739005 40.43214989 461.28886318 C40.43255564 460.49835064 40.43296138 459.70783809 40.43337943 458.89337062 C40.4458094 434.52903995 40.45334056 410.16471156 40.45586586 385.80037785 C40.45594576 385.03542751 40.45602566 384.27047718 40.45610799 383.48234653 C40.45781454 366.68973982 40.45833693 349.89713325 40.45776723 333.10452647 C40.45757426 327.09575631 40.45747018 321.08698614 40.45740977 315.07821597 C40.45739395 313.58337503 40.45737354 312.0885341 40.45734853 310.59369316 C40.45699588 286.77436242 40.46839221 262.95505548 40.48565616 239.13573156 C40.50295703 215.14348435 40.50733775 191.15127007 40.49413352 167.15901925 C40.48594324 152.27261819 40.48841911 137.38632382 40.50891658 122.49993373 C40.52088693 113.00557927 40.51835835 103.51130057 40.50397559 94.01694964 C40.49618769 88.60491816 40.49473243 83.19308884 40.51089029 77.78107136 C40.52546843 72.85509516 40.52155144 67.92948912 40.50304256 63.00352928 C40.49960696 61.23497972 40.50283378 59.46640103 40.51364497 57.69788117 C40.60300665 42.02718435 38.28939323 27.82925776 27.05078125 15.9375 C25.10474397 14.16350924 23.11974013 12.56104893 21 11 C20.39671875 10.55140625 19.7934375 10.1028125 19.171875 9.640625 C13.29239798 5.63862804 6.65858673 3.38531689 0 1 C0 0.67 0 0.34 0 0 Z " fill="#FDFDFD" transform="translate(793,0)"/>
<path d="M0 0 C31.02 0 62.04 0 94 0 C94 0.33 94 0.66 94 1 C92.76636719 1.32871094 92.76636719 1.32871094 91.5078125 1.6640625 C83.88876203 3.82836552 77.48635114 6.4423338 71 11 C70.36449219 11.43957031 69.72898437 11.87914062 69.07421875 12.33203125 C60.16110642 19.18979173 54.17952591 31.07278374 52 42 C51.90600894 44.4441418 51.86398397 46.85923511 51.87119883 49.30308378 C51.86853632 50.41644945 51.86853632 50.41644945 51.86582002 51.55230737 C51.86106074 54.05821212 51.86345769 56.56405978 51.86577892 59.06996727 C51.86382674 60.88496841 51.86143819 62.69996912 51.85865095 64.51496917 C51.85223102 69.53583769 51.85209091 74.55669026 51.85292836 79.57756211 C51.85275925 85.02742806 51.84685752 90.47728823 51.8416875 95.92715132 C51.83234617 106.75138756 51.82843688 117.5756197 51.82616853 128.39985946 C51.82321044 141.35907248 51.81451534 154.31828005 51.80575425 167.27749022 C51.78474277 198.60461846 51.77443391 229.93174803 51.76562465 261.25888167 C51.76269111 271.63301696 51.75932128 282.00715204 51.75565743 292.3812871 C51.75527 293.47893517 51.75527 293.47893517 51.75487473 294.59875794 C51.75382852 297.55917852 51.7527801 300.5195991 51.75172891 303.48001968 C51.73376308 354.12139254 51.71838405 404.76276573 51.71096988 455.40414132 C51.71038591 459.38256562 51.70978864 463.36098992 51.70919226 467.33941422 C51.70901508 468.52320873 51.70901508 468.52320873 51.70883433 469.73091828 C51.70763693 477.72663906 51.70642817 485.72235984 51.70520179 493.71808061 C51.70495656 495.32125106 51.7047127 496.92442151 51.70447022 498.52759196 C51.69668128 550.01037575 51.67430031 601.49313674 51.6417938 652.97591057 C51.61844723 689.96391295 51.5968959 726.9519108 51.58978748 763.93992043 C51.58964046 764.70065586 51.58949344 765.4613913 51.58934197 766.24517932 C51.58615707 782.94565085 51.58410623 799.64612233 51.58311442 816.34659412 C51.58269968 823.06633523 51.58214478 829.78607632 51.58155251 836.50581741 C51.58149184 837.24125156 51.58143117 837.97668571 51.58136866 838.73440575 C51.57935289 862.42167042 51.56511603 886.10890818 51.5446075 909.79616346 C51.52344825 934.32201535 51.51667244 958.84783173 51.52648129 983.37369137 C51.53170434 997.5146919 51.52578079 1011.65558559 51.50394662 1025.79657079 C51.49046532 1035.24028919 51.49149192 1044.68393382 51.50434858 1054.12765291 C51.51126293 1059.5099818 51.51185416 1064.89210602 51.49478849 1070.27441685 C51.47937794 1075.17463271 51.48251299 1080.0744795 51.50019877 1084.97468448 C51.50333867 1086.73279407 51.49983121 1088.49093194 51.48870702 1090.24900914 C51.3830318 1108.11964056 54.79917507 1124.27945608 67.48046875 1137.67578125 C74.3329048 1143.99702071 82.25913798 1147.94733452 91 1151 C91 1151.33 91 1151.66 91 1152 C60.97 1152 30.94 1152 0 1152 C0 771.84 0 391.68 0 0 Z " fill="#FCFDFD" transform="translate(0,0)"/>
<path d="M0 0 C0.81311646 0.00187317 1.62623291 0.00374634 2.46398926 0.00567627 C4.18892502 0.01240173 5.9138454 0.02632606 7.63867188 0.046875 C10.2436384 0.07768022 12.84799535 0.08781576 15.453125 0.09375 C23.13973049 0.12989891 30.75360802 0.26300485 38.40380859 1.07861328 C70.59510281 4.45707936 105.19090606 3.82897452 137.3828125 0.80859375 C144.43985794 0.20375282 151.48807721 0.10678586 158.56591797 0.08789062 C160.80601901 0.07801581 163.04526253 0.04679551 165.28515625 0.015625 C166.72134882 0.00910776 168.15754781 0.0038523 169.59375 0 C170.87894531 -0.0093457 172.16414062 -0.01869141 173.48828125 -0.02832031 C176.94254536 0.34558431 178.30440393 0.96513899 180.78125 3.328125 C178.25101726 23.14828146 169.85702099 39.00617822 154.58203125 52.171875 C140.28356034 63.17990282 122.46071309 69.42795061 104.78125 72.328125 C104.04648437 72.45832031 103.31171875 72.58851563 102.5546875 72.72265625 C75.32111267 76.66574141 47.5472356 70.72226937 23.78125 57.328125 C22.29044922 56.51408203 22.29044922 56.51408203 20.76953125 55.68359375 C6.47987843 47.30549488 -4.93739062 33.77506215 -10.28125 18.015625 C-11.44825999 13.26819661 -12.12423518 8.16625658 -11.21875 3.328125 C-8.6145607 -0.82462013 -4.37816538 -0.06919547 0 0 Z " fill="#0A0E16" transform="translate(362.21875,183.671875)"/>
<path d="M0 0 C0.33 0 0.66 0 1 0 C1 353.1 1 706.2 1 1070 C0.67 1070 0.34 1070 0 1070 C-0.2475 1068.700625 -0.2475 1068.700625 -0.5 1067.375 C-3.08461153 1061.55962407 -8.2857788 1058.60387804 -14 1056.125 C-14.99 1055.75375 -15.98 1055.3825 -17 1055 C-17 1054.34 -17 1053.68 -17 1053 C-16.18015625 1052.61328125 -15.3603125 1052.2265625 -14.515625 1051.828125 C-13.43796875 1051.30734375 -12.3603125 1050.7865625 -11.25 1050.25 C-9.64898438 1049.48429687 -9.64898438 1049.48429687 -8.015625 1048.703125 C-4.96528092 1046.98039181 -3.15887284 1045.74412506 -1 1043 C-0.39856049 1039.65505524 -0.39856049 1039.65505524 -0.49679399 1035.81545949 C-0.48808383 1034.72135943 -0.48808383 1034.72135943 -0.47919771 1033.60515633 C-0.46452505 1031.14273845 -0.47851267 1028.68130322 -0.49219131 1026.21889114 C-0.48752731 1024.43546251 -0.48110932 1022.65203775 -0.47308904 1020.86862105 C-0.45604357 1015.93542836 -0.46409562 1011.00253839 -0.47599602 1006.06934218 C-0.48454178 1000.71480879 -0.46998651 995.36033195 -0.458287 990.00581145 C-0.44097579 980.61072384 -0.43858128 971.21572284 -0.44580269 961.8206234 C-0.4564739 947.85036 -0.44433787 933.88018242 -0.42743097 919.90992851 C-0.39964506 896.41252439 -0.39047217 872.91515086 -0.39188385 849.41773224 C-0.39322554 826.14336314 -0.38631495 802.86902039 -0.36830902 779.5946579 C-0.36775386 778.87219796 -0.3671987 778.14973802 -0.36662672 777.40538535 C-0.3615519 770.8069544 -0.35637516 764.20852353 -0.35107614 757.61009275 C-0.33790384 741.20616649 -0.32600993 724.80223945 -0.31498337 708.39831161 C-0.31448018 707.65126243 -0.313977 706.90421325 -0.31345856 706.13452621 C-0.28908527 669.78320912 -0.27944003 633.43189009 -0.27099609 597.08056641 C-0.26805719 584.46376543 -0.26505323 571.84696447 -0.26177979 559.23016357 C-0.26157683 558.44768237 -0.26137388 557.66520117 -0.26116478 556.85900842 C-0.25164328 520.492375 -0.23166819 484.12574951 -0.20899166 447.75912219 C-0.20751991 445.39855523 -0.20605267 443.03798827 -0.20458635 440.67742131 C-0.19486186 425.03399356 -0.18495708 409.39056594 -0.17493158 393.74713838 C-0.15498443 362.61984569 -0.13609666 331.49255238 -0.11793654 300.3652586 C-0.11707168 298.88285163 -0.11620607 297.40044467 -0.11533972 295.9180377 C-0.06664828 212.58921922 -0.03770669 129.26039509 0 0 Z " fill="#919191" transform="translate(833,42)"/>
<path d="M0 0 C1.5916085 3.48164359 2.4917836 6.16408791 2 10 C0.625 12.3125 0.625 12.3125 -1 14 C-1.66 14 -2.32 14 -3 14 C-3.33 14.66 -3.66 15.32 -4 16 C-5.5778125 15.938125 -5.5778125 15.938125 -7.1875 15.875 C-10.8933055 15.99650182 -12.65049251 16.64424697 -16 18 C-18.98990545 18.46037461 -21.98579537 18.750458 -25 19 C-26.94158017 15.48375245 -27.18311068 13.0284349 -27 9 C-24.29120665 7.64560332 -21.99066732 7.93498549 -19 8 C-19 7.34 -19 6.68 -19 6 C-12.84765625 5.12109375 -12.84765625 5.12109375 -11 5 C-10.67 5.33 -10.34 5.66 -10 6 C-9.38125 5.195625 -8.7625 4.39125 -8.125 3.5625 C-5.17380625 0.00370753 -4.73499494 0 0 0 Z " fill="#E4E4E4" transform="translate(760,483)"/>
<path d="M0 0 C0.33 0 0.66 0 1 0 C1 9.24 1 18.48 1 28 C0.67 28 0.34 28 0 28 C-0.2475 26.700625 -0.2475 26.700625 -0.5 25.375 C-3.08461153 19.55962407 -8.2857788 16.60387804 -14 14.125 C-14.99 13.75375 -15.98 13.3825 -17 13 C-17 12.34 -17 11.68 -17 11 C-16.19175781 10.62488281 -15.38351562 10.24976563 -14.55078125 9.86328125 C-8.84492283 7.1308014 -4.12378897 4.83478706 0 0 Z " fill="#B4B4B4" transform="translate(833,1084)"/>
<path d="M0 0 C1.88391785 3.26545761 2.49287967 6.28111761 3 10 C3.99 10 4.98 10 6 10 C6.33 8.68 6.66 7.36 7 6 C8.32 6.66 9.64 7.32 11 8 C10.34 6.68 9.68 5.36 9 4 C9.66 3.34 10.32 2.68 11 2 C11.66 3.65 12.32 5.3 13 7 C14.98 6.67 16.96 6.34 19 6 C18.67 6.66 18.34 7.32 18 8 C17.34 8 16.68 8 16 8 C15.67 8.66 15.34 9.32 15 10 C13.4221875 9.938125 13.4221875 9.938125 11.8125 9.875 C8.1066945 9.99650182 6.34950749 10.64424697 3 12 C0.01009455 12.46037461 -2.98579537 12.750458 -6 13 C-7.94158017 9.48375245 -8.18311068 7.0284349 -8 3 C-5.29120665 1.64560332 -2.99066732 1.93498549 0 2 C0 1.34 0 0.68 0 0 Z " fill="#41474F" transform="translate(741,489)"/>
<path d="M0 0 C0.93423645 3.01031744 1.04449911 3.86650268 0 7 C0.33 7.99 0.66 8.98 1 10 C-0.32 9.67 -1.64 9.34 -3 9 C-3.33 9.99 -3.66 10.98 -4 12 C-4.99 12 -5.98 12 -7 12 C-8.31626692 8.38026598 -9 5.90432869 -9 2 C-6.6739143 1.61936779 -4.33944736 1.28730055 -2 1 C-1.67 1.33 -1.34 1.66 -1 2 C-0.67 1.34 -0.34 0.68 0 0 Z " fill="#C5C6C7" transform="translate(751,487)"/>
<path d="M0 0 C0.66 0 1.32 0 2 0 C2.67155349 2.26949102 3.3373963 4.5403961 4 6.8125 C4.37125 8.07707031 4.7425 9.34164062 5.125 10.64453125 C6 14 6 14 6 17 C5.34 17 4.68 17 4 17 C3.67 16.34 3.34 15.68 3 15 C2.34 19.62 1.68 24.24 1 29 C0.67 29 0.34 29 0 29 C0 19.43 0 9.86 0 0 Z " fill="#828280" transform="translate(643,511)"/>
<path d="M0 0 C0.66 0 1.32 0 2 0 C2.08159574 4.16138263 1.98248524 7.9472484 1 12 C-1.72574271 11.62669176 -2.80822085 11.20805399 -4.703125 9.15234375 C-5.46882812 8.05599609 -5.46882812 8.05599609 -6.25 6.9375 C-6.77078125 6.20402344 -7.2915625 5.47054688 -7.828125 4.71484375 C-8.21484375 4.14894531 -8.6015625 3.58304687 -9 3 C-7.68 2.67 -6.36 2.34 -5 2 C-4.34 3.65 -3.68 5.3 -3 7 C-2.34 7 -1.68 7 -1 7 C-1.020625 6.030625 -1.04125 5.06125 -1.0625 4.0625 C-1 1 -1 1 0 0 Z " fill="#E0E1E1" transform="translate(729,493)"/>
<path d="M0 0 C0 0.66 0 1.32 0 2 C-0.99 2.33 -1.98 2.66 -3 3 C-1.68 3.66 -0.36 4.32 1 5 C-0.32 5.33 -1.64 5.66 -3 6 C-3 6.66 -3 7.32 -3 8 C-1.35 7.67 0.3 7.34 2 7 C1.67 7.99 1.34 8.98 1 10 C-0.98 10.33 -2.96 10.66 -5 11 C-7.09350689 7.5980513 -7.17942163 4.94727588 -7 1 C-4.53721199 -0.231394 -2.7204945 -0.07159196 0 0 Z " fill="#E5E5E6" transform="translate(740,491)"/>
<path d="M0 0 C2.64 0.33 5.28 0.66 8 1 C8 1.33 8 1.66 8 2 C5.69 2.33 3.38 2.66 1 3 C1.30921884 4.45903258 1.62248799 5.91720722 1.9375 7.375 C2.19853516 8.59316406 2.19853516 8.59316406 2.46484375 9.8359375 C2.92330693 12.029463 2.92330693 12.029463 4 14 C2.35 14.66 0.7 15.32 -1 16 C-2.10852275 11.56590901 -2.21993456 7.54531422 -2 3 C-1.34 2.01 -0.68 1.02 0 0 Z " fill="#444951" transform="translate(732,489)"/>
<path d="M0 0 C0.66 0 1.32 0 2 0 C2.22644569 3.24900334 2.42797517 6.49909039 2.625 9.75 C2.68945312 10.67039062 2.75390625 11.59078125 2.8203125 12.5390625 C2.871875 13.42851563 2.9234375 14.31796875 2.9765625 15.234375 C3.02893066 16.05131836 3.08129883 16.86826172 3.13525391 17.70996094 C2.98414765 20.26840268 2.28926961 21.80868168 1 24 C0 23 0 23 -0.11352539 20.77514648 C-0.10828857 19.81680908 -0.10305176 18.85847168 -0.09765625 17.87109375 C-0.09443359 16.83662109 -0.09121094 15.80214844 -0.08789062 14.73632812 C-0.07951172 13.64771484 -0.07113281 12.55910156 -0.0625 11.4375 C-0.05798828 10.34501953 -0.05347656 9.25253906 -0.04882812 8.12695312 C-0.03699826 5.41791505 -0.02051543 2.70898401 0 0 Z " fill="#131519" transform="translate(255,610)"/>
<path d="M0 0 C3.375 0.25 3.375 0.25 7 1 C8.4375 3.0625 8.4375 3.0625 9 5 C7.68 4.67 6.36 4.34 5 4 C4.67 4.99 4.34 5.98 4 7 C3.01 7 2.02 7 1 7 C0.67 4.69 0.34 2.38 0 0 Z " fill="#DDDEDE" transform="translate(743,492)"/>
<path d="M0 0 C0.33 0 0.66 0 1 0 C1 8.58 1 17.16 1 26 C0.67 26 0.34 26 0 26 C-0.06058594 24.75863281 -0.12117187 23.51726563 -0.18359375 22.23828125 C-0.26803623 20.59634423 -0.35268236 18.95441768 -0.4375 17.3125 C-0.47681641 16.49587891 -0.51613281 15.67925781 -0.55664062 14.83789062 C-0.73256228 11.49537923 -0.91418742 8.37625516 -1.66015625 5.10546875 C-2 3 -2 3 0 0 Z " fill="#212631" transform="translate(638,596)"/>
<path d="M0 0 C0.33 0 0.66 0 1 0 C0.03644647 14.78132118 0.03644647 14.78132118 -1 21 C-3 19 -3 19 -3.046875 16.171875 C-2.94890625 15.04265625 -2.8509375 13.9134375 -2.75 12.75 C-2.66234375 11.63109375 -2.5746875 10.5121875 -2.484375 9.359375 C-2.00559918 6.03883303 -1.16100488 3.14042303 0 0 Z " fill="#080D15" transform="translate(235,370)"/>
<path d="M0 0 C0.66 0 1.32 0 2 0 C2.33 1.65 2.66 3.3 3 5 C0.35261084 6.4606285 -0.89448334 7 -4 7 C-4 6.01 -4 5.02 -4 4 C-3.34 4 -2.68 4 -2 4 C-1.34 2.68 -0.68 1.36 0 0 Z " fill="#B5B6B6" transform="translate(758,489)"/>
<path d="M0 0 C0 0.66 0 1.32 0 2 C-3.82320557 3.42258812 -6.91281305 4.24042276 -11 4 C-11 3.34 -11 2.68 -11 2 C-7.12315913 0.80712589 -4.08378077 0 0 0 Z " fill="#1B212F" transform="translate(649,945)"/>
<path d="M0 0 C0.33 0.66 0.66 1.32 1 2 C2.65 1.67 4.3 1.34 6 1 C5.67 1.99 5.34 2.98 5 4 C3.02 4.33 1.04 4.66 -1 5 C-1.33 4.01 -1.66 3.02 -2 2 C-1.34 2 -0.68 2 0 2 C0 1.34 0 0.68 0 0 Z " fill="#DBDADB" transform="translate(736,497)"/>
<path d="M0 0 C-0.56371414 3.26954202 -1.49962266 4.82575883 -4 7 C-4.66 6.67 -5.32 6.34 -6 6 C-5.34 4.68 -4.68 3.36 -4 2 C-4.66 1.67 -5.32 1.34 -6 1 C-4 0 -4 0 0 0 Z " fill="#ACACAC" transform="translate(760,483)"/>
<path d="M0 0 C-0.61875 0.433125 -1.2375 0.86625 -1.875 1.3125 C-4.2197245 2.99740483 -4.2197245 2.99740483 -6 6 C-7.32 5.01 -8.64 4.02 -10 3 C-9.01 3 -8.02 3 -7 3 C-6.67 2.01 -6.34 1.02 -6 0 C-3.50907189 -1.24546405 -2.58919267 -0.7767578 0 0 Z " fill="#40454E" transform="translate(756,484)"/>
<path d="M0 0 C3.24299151 2.38957269 5.50902342 4.2047869 7 8 C5.35 7.67 3.7 7.34 2 7 C1.87625 6.195625 1.7525 5.39125 1.625 4.5625 C1.315625 3.2940625 1.315625 3.2940625 1 2 C0.34 1.67 -0.32 1.34 -1 1 C-0.67 0.67 -0.34 0.34 0 0 Z " fill="#313641" transform="translate(719,496)"/>
<path d="M0 0 C1.4606285 2.64738916 2 3.89448334 2 7 C-0.31 6.67 -2.62 6.34 -5 6 C-4.67 5.34 -4.34 4.68 -4 4 C-3.01 4 -2.02 4 -1 4 C-0.67 2.68 -0.34 1.36 0 0 Z " fill="#50555C" transform="translate(741,489)"/>
<path d="M0 0 C1.65 0.99 3.3 1.98 5 3 C3.68 3.99 2.36 4.98 1 6 C0.34 5.67 -0.32 5.34 -1 5 C-0.67 3.35 -0.34 1.7 0 0 Z " fill="#353C48" transform="translate(731,499)"/>
<path d="M0 0 C0.66 0 1.32 0 2 0 C2.66 1.98 3.32 3.96 4 6 C4.66 6 5.32 6 6 6 C5.67 7.32 5.34 8.64 5 10 C4.16121545 8.71186658 3.32913217 7.41936744 2.5 6.125 C2.0359375 5.40570313 1.571875 4.68640625 1.09375 3.9453125 C0 2 0 2 0 0 Z " fill="#0A0F19" transform="translate(209,407)"/>
<path d="M0 0 C0.66 0 1.32 0 2 0 C2.33 1.98 2.66 3.96 3 6 C2.01 6.66 1.02 7.32 0 8 C0 5.36 0 2.72 0 0 Z " fill="#727370" transform="translate(643,511)"/>
</svg>
