<?xml version="1.0" encoding="UTF-8"?>
<svg version="1.1" xmlns="http://www.w3.org/2000/svg" width="896" height="1152">
<path d="M0 0 C295.68 0 591.36 0 896 0 C896 380.16 896 760.32 896 1152 C600.32 1152 304.64 1152 0 1152 C0 771.84 0 391.68 0 0 Z " fill="#6F6F6F" transform="translate(0,0)"/>
<path d="M0 0 C0.88107422 0.00459229 1.76214844 0.00918457 2.66992188 0.01391602 C33.41231336 0.40945974 33.41231336 0.40945974 44.30200195 2.76048279 C46.96496043 3.2551005 49.38782855 3.37694397 52.09375 3.37939453 C53.10184219 3.38250137 54.10993439 3.38560822 55.14857483 3.3888092 C56.23392014 3.38683029 57.31926544 3.38485138 58.4375 3.3828125 C60.14231789 3.38485939 60.14231789 3.38485939 61.88157654 3.38694763 C65.56691416 3.38897112 69.25217063 3.38267074 72.9375 3.375 C74.18314728 3.37378143 75.42879456 3.37256287 76.71218872 3.37130737 C105.78021298 3.85157293 105.78021298 3.85157293 134.71875 1.7265625 C140.43673747 0.94346757 146.21311953 1.06399789 151.97387695 1.06469727 C153.99907158 1.06250101 156.02372869 1.04426182 158.04882812 1.02539062 C159.34369141 1.02345703 160.63855469 1.02152344 161.97265625 1.01953125 C163.1419165 1.01542236 164.31117676 1.01131348 165.51586914 1.00708008 C171.58527097 1.43797946 176.16839503 3.03433526 181 6.6875 C183.63352297 8.61611005 186.01265639 10.28757819 188.9375 11.75 C191.60592473 13.08421237 193.60844182 14.47503461 195.9765625 16.2578125 C203.58831441 21.62546225 211.97674472 25.52537214 220.3125 29.625 C222.02885152 30.47598631 223.74507816 31.32722455 225.46118164 32.17871094 C235.36216271 37.07605027 245.29752329 41.87060105 255.43359375 46.265625 C261.99723526 49.12320193 268.46214769 52.19915228 274.9375 55.25 C275.68504547 55.60171265 276.43259094 55.95342529 277.20278931 56.3157959 C282.09587623 58.62093525 286.97831413 60.94725386 291.8527832 63.29150391 C293.53002215 64.09513693 295.20971307 64.893673 296.8918457 65.68701172 C326.17942077 79.51131723 348.15815222 97.46397766 359.49975586 128.65576172 C362.22821448 136.58895354 364.0065405 144.69242471 365.75390625 152.88671875 C366.82215097 157.85614693 368.10461172 162.73848415 369.5 167.625 C371.82421234 175.79289501 373.93721536 183.99674031 375.9375 192.25 C376.12812012 193.03181641 376.31874023 193.81363281 376.51513672 194.61914062 C380.26362874 210.02390235 383.84841671 225.48226967 386.875 241.046875 C388.15886468 247.509439 389.70412892 253.90841614 391.25 260.3125 C391.40401276 260.95206635 391.55802551 261.59163269 391.71670532 262.25057983 C393.68603412 270.40813636 395.7712528 278.49953196 398.22485352 286.52441406 C400.41337132 293.69682122 402.17439643 300.96423378 403.9375 308.25 C404.12957031 308.97574219 404.32164062 309.70148438 404.51953125 310.44921875 C404.97239143 312.40032662 405.24612022 314.25041072 405.375 316.25 C405.43558594 316.91 405.49617187 317.57 405.55859375 318.25 C404.49895807 321.66216017 401.96484258 322.56587023 398.9375 324.25 C396.33810902 325.37038484 393.69569638 326.26538445 391 327.125 C390.22785156 327.37693115 389.45570313 327.6288623 388.66015625 327.88842773 C380.36201484 330.53493743 371.93637789 332.6816327 363.49609375 334.8203125 C359.48829217 335.8384042 355.5136863 336.93198744 351.54516602 338.09228516 C342.29025531 340.78578788 332.91303104 342.88338546 323.5 344.9375 C322.811409 345.08806854 322.12281799 345.23863708 321.4133606 345.39376831 C289.47015182 352.35455853 289.47015182 352.35455853 283 348.5 C279.15114265 342.43513388 276.5777956 335.49737756 276.9375 328.25 C276.2775 328.25 275.6175 328.25 274.9375 328.25 C274.94273682 328.92466309 274.94797363 329.59932617 274.95336914 330.29443359 C274.97438746 333.4046126 274.98723824 336.51477658 275 339.625 C275.00837891 340.68589844 275.01675781 341.74679687 275.02539062 342.83984375 C275.03996086 347.58974116 275.00352373 352.26218039 274.46484375 356.984375 C273.63105274 364.33266597 273.60877845 371.73761636 273.4375 379.125 C273.36863965 382.08084656 273.29496068 385.03652233 273.21875 387.9921875 C273.17331055 389.93907471 273.17331055 389.93907471 273.12695312 391.92529297 C272.97352018 396.38114556 272.5682758 400.81045569 272.18508911 405.25143433 C270.24702505 428.72343739 270.74995023 452.40811883 270.75219727 475.93798828 C270.75227829 480.37813409 270.74536019 484.81817621 270.73168945 489.25830078 C270.62632894 524.03045444 271.91968212 558.33063904 275.09375 592.95703125 C275.23189413 594.4786672 275.36990949 596.00031484 275.5078125 597.52197266 C275.72345252 599.89852596 275.93979822 602.27500522 276.15820312 604.65130615 C278.98999938 635.51249872 280.84181817 666.41564303 282.51657867 697.35765076 C282.68534808 700.46043752 282.85694673 703.56305629 283.02923584 706.66564941 C284.08139739 725.6984954 285.12334555 744.73172282 285.265625 763.796875 C285.2822821 765.01038635 285.29893921 766.22389771 285.31610107 767.47418213 C285.31394592 768.5742157 285.31179077 769.67424927 285.30957031 770.80761719 C285.31165497 772.21681427 285.31165497 772.21681427 285.31378174 773.65447998 C284.84629175 776.87913721 283.91103279 778.66087848 281.9375 781.25 C272.68227947 787.81271844 258.41918268 787.80689502 247.48123169 788.42033386 C246.49386826 788.47947338 246.49386826 788.47947338 245.48655809 788.53980764 C230.79378726 789.41499394 216.10277291 789.54483275 201.38716531 789.52610838 C197.63932542 789.52357972 193.89150773 789.53272876 190.14367676 789.54014587 C182.8502964 789.55272638 175.55695312 789.55470803 168.26356374 789.55234561 C162.32395054 789.55054438 156.38434837 789.5523501 150.44473648 789.55657005 C149.59139693 789.55716524 148.73805737 789.55776043 147.85885904 789.55837366 C146.1240088 789.5595857 144.38915857 789.56079983 142.65430833 789.56201603 C126.48279805 789.57282601 110.31130876 789.57075956 94.13979734 789.56463119 C79.41765284 789.55946008 64.69557445 789.57073437 49.97344302 789.58972941 C34.76347846 789.60919979 19.55354504 789.61734828 4.34356797 789.61360615 C-4.15855141 789.61170898 -12.66061449 789.61403527 -21.16272354 789.62832069 C-28.39546021 789.64035334 -35.62810584 789.64150813 -42.86084403 789.62953053 C-46.53449468 789.62372561 -50.20797983 789.62230264 -53.8816185 789.63453293 C-68.26439738 789.67896012 -82.52219275 789.35134707 -96.84005737 787.91423035 C-98.01023505 787.79796336 -99.18041273 787.68169638 -100.38605034 787.56190616 C-120.1559995 785.35338385 -120.1559995 785.35338385 -126.0625 779.25 C-128.40744673 774.56010654 -127.25589317 768.12451202 -127.25 762.9375 C-127.25039276 762.21048889 -127.25078552 761.48347778 -127.25119019 760.73443604 C-127.24268866 747.42394333 -126.64345271 734.18057732 -125.84008789 720.8972168 C-125.33834079 712.56875538 -124.94897884 704.26178399 -124.76757812 695.91845703 C-124.41611147 679.81742645 -123.06892605 663.88609041 -121.5769043 647.85571289 C-120.23365011 633.41192654 -119.1945515 618.97851784 -118.32763672 604.49755859 C-117.91274668 597.73350225 -117.42942454 590.97395577 -116.95849609 584.21362305 C-116.49463171 577.54848507 -116.04926603 570.8821302 -115.60467529 564.21568298 C-115.28280644 559.41726537 -114.94391864 554.62091919 -114.57661438 549.82577515 C-112.2924089 519.69182474 -112.7812508 489.4475815 -113.0625 459.25 C-113.07700195 457.67868317 -113.07700195 457.67868317 -113.09179688 456.07562256 C-113.36888151 428.2199583 -114.58477113 400.40428719 -115.94225216 372.58371067 C-116.66289352 357.79971042 -117.30897526 343.05518522 -117.0625 328.25 C-117.7225 328.25 -118.3825 328.25 -119.0625 328.25 C-119.20945313 329.39275391 -119.20945313 329.39275391 -119.359375 330.55859375 C-120.34696115 337.37804642 -121.87964587 343.13150371 -125.0625 349.25 C-158.34114305 351.05971473 -193.52665097 339.9808982 -225.0625 330.25 C-225.79098145 330.02860352 -226.51946289 329.80720703 -227.27001953 329.57910156 C-242.35288695 324.95961305 -242.35288695 324.95961305 -248.0625 319.25 C-247.71326486 312.98472164 -246.05012666 307.27744832 -244.1875 301.3125 C-243.93097656 300.47009766 -243.67445313 299.62769531 -243.41015625 298.75976562 C-241.39625028 292.18674086 -241.39625028 292.18674086 -240.3059082 289.12646484 C-237.8234143 282.15342252 -236.44165645 274.99884038 -235 267.75 C-234.48883486 265.21863814 -233.97712871 262.68738547 -233.46484375 260.15625 C-233.10326172 258.36127075 -233.10326172 258.36127075 -232.734375 256.5300293 C-232.03532668 253.11734244 -231.28803878 249.71861641 -230.52075195 246.32080078 C-229.68374132 242.53842243 -228.93984496 238.73745369 -228.1875 234.9375 C-228.01605469 234.07866211 -227.84460938 233.21982422 -227.66796875 232.33496094 C-226.78606275 227.91416573 -225.91369205 223.49170856 -225.0546875 219.06640625 C-222.33494879 205.1267425 -219.04351673 191.4840417 -215.0703125 177.84375 C-213.76025721 173.172235 -212.59236466 168.4706166 -211.45703125 163.75390625 C-210.74310878 160.82022485 -209.96473941 157.95995295 -209 155.09765625 C-208.12270663 152.43287762 -207.60672527 149.95524235 -207.1875 147.1875 C-202.73643752 122.01011605 -189.25393213 97.45817566 -168.3203125 82.453125 C-149.66666372 69.83842726 -129.10985026 60.58091259 -108.70947266 51.18115234 C-98.27335057 46.36966552 -87.91799379 41.40083615 -77.57421875 36.39453125 C-73.27218397 34.31252875 -68.96278927 32.24735985 -64.64453125 30.19921875 C-63.10599487 29.46856201 -63.10599487 29.46856201 -61.53637695 28.72314453 C-59.63635745 27.82187923 -57.73525693 26.92288708 -55.83276367 26.02685547 C-44.24285113 20.80655452 -44.24285113 20.80655452 -33.875 13.625 C-31.02867502 11.22143668 -28.41028814 9.85110434 -25.0703125 8.2890625 C-22.46871348 6.9427097 -20.26134223 5.24593886 -17.99609375 3.3984375 C-12.3616885 0.05194226 -6.34246408 -0.06993545 0 0 Z " fill="#0A0A0A" transform="translate(368.0625,182.75)"/>
<path d="M0 0 C34.65 0 69.3 0 105 0 C105 380.16 105 760.32 105 1152 C70.02 1152 35.04 1152 -1 1152 C-1 1151.67 -1 1151.34 -1 1151 C-0.01773438 1150.77957031 -0.01773438 1150.77957031 0.984375 1150.5546875 C14.90669796 1147.13309965 26.29215972 1141.14642573 34.19556544 1128.98765716 C41.41972911 1117.02638972 42.87364164 1107.31028882 42.75225353 1093.59023285 C42.75821888 1091.75162923 42.76681157 1089.91303261 42.77777186 1088.07445198 C42.8002371 1083.03446247 42.78553088 1077.99517215 42.76460396 1072.95520151 C42.7484496 1067.46744605 42.76716872 1061.97978948 42.78139812 1056.49204397 C42.80151583 1046.87811943 42.79935083 1037.26440058 42.78252411 1027.65047264 C42.75873909 1014.02366457 42.76542902 1000.39701967 42.78083784 986.77020532 C42.80878043 962.0477304 42.80736002 937.32533886 42.78720665 912.6028595 C42.7678062 888.7785391 42.75865232 864.95425693 42.76395607 841.12992859 C42.76427391 839.63317778 42.76459026 838.13642697 42.76490512 836.63967616 C42.76618438 830.62473135 42.76752547 824.60978656 42.76894999 818.59484178 C42.77289548 801.78097853 42.77478931 784.96711536 42.77510548 768.15325165 C42.77512784 767.00479276 42.77512784 767.00479276 42.77515066 765.83313267 C42.77547979 741.43953339 42.76680286 717.04594589 42.75184917 692.65235138 C42.75112327 691.46571811 42.75112327 691.46571811 42.7503827 690.25511244 C42.74249435 677.40864999 42.73412111 664.56218786 42.72571329 651.71572574 C42.69239979 600.76635268 42.68665671 549.81705554 42.70678711 498.86767578 C42.71183451 486.02766678 42.71684244 473.18765776 42.72152996 460.34764862 C42.72182022 459.55702357 42.72211049 458.76639852 42.72240955 457.95181513 C42.73128956 433.58345789 42.73392185 409.21510688 42.72961903 384.84674835 C42.72941646 383.69913468 42.72941646 383.69913468 42.72920981 382.5283369 C42.72616911 365.73309798 42.72147229 348.93785979 42.71529482 332.14262173 C42.71308735 326.13308073 42.71094782 320.12353971 42.70881857 314.11399869 C42.70828477 312.61900562 42.70774386 311.12401255 42.70719582 309.62901949 C42.70091571 292.49418712 42.69771537 275.35936385 42.70455909 258.22453117 C42.70500121 257.11718588 42.70500121 257.11718588 42.70545227 255.98746997 C42.70695949 252.27069274 42.70853125 248.55391553 42.71013172 244.83713834 C42.72170081 217.96738814 42.71742562 191.0977236 42.68458607 164.22798812 C42.66771553 150.01582899 42.66456382 135.80382403 42.68116695 121.5916637 C42.69086321 112.10084779 42.68240001 102.61016056 42.65910407 93.11936857 C42.64632989 87.71030058 42.64141632 82.30154229 42.65848859 76.89247912 C42.67386214 71.96806558 42.66609045 67.0442423 42.64014784 62.11987805 C42.63483536 60.35306969 42.63781379 58.58621101 42.6502882 56.8194387 C42.75306371 41.1171379 39.89907994 28.09915914 29 16 C20.75169061 8.15368403 10.89555321 3.85138946 0 1 C0 0.67 0 0.34 0 0 Z " fill="#FEFEFE" transform="translate(791,0)"/>
<path d="M0 0 C30.69 0 61.38 0 93 0 C89.76284016 1.61857992 86.61375469 2.94284144 83.25 4.25 C70.40063902 9.57129444 60.86004113 19.43074516 55 32 C51.48851162 41.85524668 51.57659442 51.75367395 51.61968327 62.05714321 C51.61624622 63.8817733 51.61149704 65.70640129 51.6055623 67.53102496 C51.59306809 72.54137092 51.59919575 77.55154633 51.60839598 82.56189301 C51.61510858 88.01419649 51.60443824 93.46647073 51.59600013 98.91876799 C51.58362553 108.47350885 51.58242424 118.02820061 51.58855057 127.58294678 C51.59763632 141.791179 51.58961388 155.99936576 51.57825933 170.2075945 C51.55768299 196.32014858 51.5565331 222.43268259 51.56190995 248.54524252 C51.56266568 252.24388541 51.5633933 255.94252831 51.56409192 259.64117122 C51.56430056 260.74315556 51.56430056 260.74315556 51.56451341 261.86740221 C51.56746666 278.15399671 51.56445198 294.44058847 51.56019563 310.72718248 C51.55961348 312.9566826 51.55904463 315.18618272 51.55848 317.41568284 C51.55696503 323.39231288 51.55543812 329.36894292 51.55388699 335.34557295 C51.5431316 377.06276187 51.53842711 418.77994827 51.54635715 460.49713802 C51.54650546 461.28336632 51.54665377 462.06959462 51.54680657 462.87964802 C51.54846555 471.64680464 51.55021513 480.41396123 51.55199958 489.18111783 C51.55224111 490.3684219 51.55224111 490.3684219 51.55248753 491.57971192 C51.553465 496.38125983 51.553465 496.38125983 51.55444872 501.18280774 C51.56484123 551.81809264 51.55707123 602.45334279 51.53344727 653.08862305 C51.52750383 665.84872144 51.52161226 678.60881986 51.51603794 691.36891842 C51.51552229 692.54746266 51.51552229 692.54746266 51.51499621 693.74981587 C51.50446861 717.96530644 51.49887484 742.1807941 51.4984808 766.39628696 C51.49846162 767.53666499 51.49846162 767.53666499 51.49844206 768.70008095 C51.49821377 785.3892702 51.49921987 802.0784592 51.50135112 818.76764831 C51.50210588 824.73924097 51.50278408 830.71083364 51.50343127 836.68242631 C51.50359396 838.16799147 51.50376162 839.65355664 51.50393428 841.1391218 C51.50665519 864.80760807 51.49810246 888.47607323 51.48408018 912.14455497 C51.46967191 936.64414997 51.47012609 961.14370467 51.4874549 985.64329832 C51.49703435 999.76899344 51.49554942 1013.89458568 51.47822021 1028.02027399 C51.46775537 1037.45223748 51.47179636 1046.88412234 51.48770025 1056.31607806 C51.49635783 1061.6923662 51.49869365 1067.06845228 51.48343093 1072.44473027 C51.46966975 1077.33820432 51.47440075 1082.23130298 51.49371612 1087.12475507 C51.49744375 1088.88152253 51.49451448 1090.63832039 51.48400303 1092.39506035 C51.38506684 1110.15763893 55.36756623 1124.5827804 67.7421875 1137.8984375 C74.76818485 1144.43820666 82.92162156 1148.17288408 92 1151 C92 1151.33 92 1151.66 92 1152 C61.64 1152 31.28 1152 0 1152 C0 771.84 0 391.68 0 0 Z " fill="#FDFEFE" transform="translate(0,0)"/>
<path d="M0 0 C0.33 0 0.66 0 1 0 C1 353.43 1 706.86 1 1071 C0.67 1071 0.34 1071 0 1071 C-0.2475 1069.700625 -0.2475 1069.700625 -0.5 1068.375 C-3.08461153 1062.55962407 -8.2857788 1059.60387804 -14 1057.125 C-14.99 1056.75375 -15.98 1056.3825 -17 1056 C-17 1055.34 -17 1054.68 -17 1054 C-16.18015625 1053.61328125 -15.3603125 1053.2265625 -14.515625 1052.828125 C-13.43796875 1052.30734375 -12.3603125 1051.7865625 -11.25 1051.25 C-9.64898438 1050.48429687 -9.64898438 1050.48429687 -8.015625 1049.703125 C-4.96506891 1047.98027208 -3.15880534 1046.74450869 -1 1044 C-0.39854371 1040.65222274 -0.39854371 1040.65222274 -0.49679399 1036.80904746 C-0.49098721 1036.07895299 -0.48518044 1035.34885852 -0.47919771 1034.59663998 C-0.46452495 1032.13185542 -0.47851272 1029.66805254 -0.49219131 1027.20327377 C-0.48752732 1025.41813972 -0.48110933 1023.63300953 -0.47308904 1021.8478874 C-0.45604351 1016.90995962 -0.46409564 1011.97233427 -0.47599602 1007.03440298 C-0.48454176 1001.67473658 -0.46998652 996.31512669 -0.458287 990.95547318 C-0.44097576 981.55137321 -0.43858128 972.14735977 -0.44580269 962.74324799 C-0.45647389 948.75958336 -0.44433789 934.77600447 -0.42743097 920.79234933 C-0.39964504 897.2724063 -0.39047217 873.75249383 -0.39188385 850.23253632 C-0.39322554 826.93583853 -0.38631496 803.63916708 -0.36830902 780.34247589 C-0.36775386 779.61932314 -0.3671987 778.8961704 -0.36662672 778.15110393 C-0.3615519 771.54634548 -0.35637516 764.94158712 -0.35107614 758.33682885 C-0.33790383 741.91717141 -0.32600993 725.49751317 -0.31498337 709.07785416 C-0.31448018 708.33008852 -0.313977 707.58232288 -0.31345856 706.81189767 C-0.28908527 670.42570806 -0.27944003 634.03951652 -0.27099609 597.65332031 C-0.26805719 585.02441403 -0.26505323 572.39550776 -0.26177979 559.76660156 C-0.26157683 558.98336962 -0.26137388 558.20013767 -0.26116478 557.39317142 C-0.25164328 520.9916539 -0.23166819 484.5901443 -0.20899166 448.18863287 C-0.20751991 445.8258019 -0.20605267 443.46297093 -0.20458635 441.10013996 C-0.19486186 425.44170881 -0.18495708 409.78327779 -0.17493158 394.12484683 C-0.15498443 362.96769973 -0.13609666 331.81055201 -0.11793654 300.65340382 C-0.11707168 299.16957503 -0.11620607 297.68574624 -0.11533972 296.20191745 C-0.06664828 212.79316165 -0.03770668 129.3844002 0 0 Z " fill="#959596" transform="translate(833,41)"/>
<path d="M0 0 C0.33 0 0.66 0 1 0 C1 9.24 1 18.48 1 28 C0.67 28 0.34 28 0 28 C-0.2475 26.700625 -0.2475 26.700625 -0.5 25.375 C-3.08461153 19.55962407 -8.2857788 16.60387804 -14 14.125 C-14.99 13.75375 -15.98 13.3825 -17 13 C-17 12.34 -17 11.68 -17 11 C-16.19175781 10.62488281 -15.38351562 10.24976563 -14.55078125 9.86328125 C-8.84492283 7.1308014 -4.12378897 4.83478706 0 0 Z " fill="#B5B5B5" transform="translate(833,1084)"/>
<path d="M0 0 C1.5722859 3.43937541 2.69741396 6.21403853 2 10 C-0.25 11.875 -0.25 11.875 -3 13 C-5.25 12.6875 -5.25 12.6875 -7 12 C-7.33 12 -7.66 12 -8 12 C-8 12.99 -8 13.98 -8 15 C-9.32 14.67 -10.64 14.34 -12 14 C-12.33 14.66 -12.66 15.32 -13 16 C-13.99 16 -14.98 16 -16 16 C-16.99 12.7 -17.98 9.4 -19 6 C-12.84765625 5.12109375 -12.84765625 5.12109375 -11 5 C-10.67 5.33 -10.34 5.66 -10 6 C-9.401875 5.195625 -8.80375 4.39125 -8.1875 3.5625 C-5.4887181 0.40106977 -4.11094207 0 0 0 Z " fill="#CDCED0" transform="translate(760,483)"/>
<path d="M0 0 C0.66 0 1.32 0 2 0 C2.83830973 2.76941606 3.67082034 5.54035069 4.5 8.3125 C4.73847656 9.09818359 4.97695313 9.88386719 5.22265625 10.69335938 C5.44824219 11.45068359 5.67382812 12.20800781 5.90625 12.98828125 C6.11572266 13.68477783 6.32519531 14.38127441 6.54101562 15.09887695 C7 17 7 17 7 20 C6.34 20 5.68 20 5 20 C4.67 18.02 4.34 16.04 4 14 C3.01 14.495 3.01 14.495 2 15 C2.01160156 15.79019531 2.02320313 16.58039062 2.03515625 17.39453125 C2.09353032 24.69128974 1.95144036 31.96088484 1.625 39.25 C1.59414307 40.08378174 1.56328613 40.91756348 1.53149414 41.77661133 C1.23397172 47.76602828 1.23397172 47.76602828 -1 50 C-1.13210503 33.30192455 -0.85501378 16.67731675 0 0 Z " fill="#838283" transform="translate(643,511)"/>
<path d="M0 0 C0.33 0 0.66 0 1 0 C1 9.9 1 19.8 1 30 C0.34 29.67 -0.32 29.34 -1 29 C-2.28046883 23.86181297 -2.18345188 18.63756084 -2.1875 13.375 C-2.19974609 12.529375 -2.21199219 11.68375 -2.22460938 10.8125 C-2.22654297 9.99523437 -2.22847656 9.17796875 -2.23046875 8.3359375 C-2.23457764 7.59907715 -2.23868652 6.8622168 -2.24291992 6.10302734 C-1.96628204 3.70809394 -1.18665822 2.08172244 0 0 Z " fill="#7B7A7B" transform="translate(652,856)"/>
<path d="M0 0 C0.99 0 1.98 0 3 0 C3.02698189 1.62490954 3.04638757 3.24994633 3.0625 4.875 C3.07410156 5.77992188 3.08570313 6.68484375 3.09765625 7.6171875 C3 10 3 10 2 12 C-2 12 -2 12 -3.484375 10.5390625 C-3.90203125 9.90742188 -4.3196875 9.27578125 -4.75 8.625 C-5.17796875 7.99851562 -5.6059375 7.37203125 -6.046875 6.7265625 C-7 5 -7 5 -7 3 C-5.68 3 -4.36 3 -3 3 C-2.67 3.66 -2.34 4.32 -2 5 C-1.34 3.35 -0.68 1.7 0 0 Z " fill="#E3E4E4" transform="translate(728,493)"/>
<path d="M0 0 C0 0.66 0 1.32 0 2 C-0.99 2.33 -1.98 2.66 -3 3 C-1.68 3.66 -0.36 4.32 1 5 C-0.32 5.33 -1.64 5.66 -3 6 C-3 6.66 -3 7.32 -3 8 C-1.35 7.67 0.3 7.34 2 7 C1.67 7.99 1.34 8.98 1 10 C-0.98 10.33 -2.96 10.66 -5 11 C-7.09350689 7.5980513 -7.17942163 4.94727588 -7 1 C-4.53721199 -0.231394 -2.7204945 -0.07159196 0 0 Z " fill="#DFE0E2" transform="translate(740,491)"/>
<path d="M0 0 C0.66 1.98 1.32 3.96 2 6 C1.34 6 0.68 6 0 6 C-0.66 7.32 -1.32 8.64 -2 10 C-2.66 10 -3.32 10 -4 10 C-4 9.01 -4 8.02 -4 7 C-4.99 7.33 -5.98 7.66 -7 8 C-7.33 6.35 -7.66 4.7 -8 3 C-3.375 0 -3.375 0 0 0 Z " fill="#DADADB" transform="translate(760,483)"/>
<path d="M0 0 C0.66 0 1.32 0 2 0 C2.83830973 2.76941606 3.67082034 5.54035069 4.5 8.3125 C4.73847656 9.09818359 4.97695313 9.88386719 5.22265625 10.69335938 C5.44824219 11.45068359 5.67382812 12.20800781 5.90625 12.98828125 C6.11572266 13.68477783 6.32519531 14.38127441 6.54101562 15.09887695 C7 17 7 17 7 20 C6.34 20 5.68 20 5 20 C4.67 18.02 4.34 16.04 4 14 C3.01 14.33 2.02 14.66 1 15 C-0.09506492 11.71480525 -0.09960608 9.26336585 -0.0625 5.8125 C-0.05347656 4.72582031 -0.04445313 3.63914062 -0.03515625 2.51953125 C-0.02355469 1.68808594 -0.01195312 0.85664063 0 0 Z " fill="#797979" transform="translate(643,511)"/>
<path d="M0 0 C0.33 0 0.66 0 1 0 C1.6492751 13.67449331 2.16741675 27.30903057 2 41 C1.67 41 1.34 41 1 41 C0.67 37.37 0.34 33.74 0 30 C-0.33 30 -0.66 30 -1 30 C-1.20272358 19.97644511 -0.58039956 10.00152811 0 0 Z " fill="#646464" transform="translate(251,530)"/>
<path d="M0 0 C1.175625 0.309375 2.35125 0.61875 3.5625 0.9375 C7.36432975 1.8930401 11.11209261 2.51401158 15 3 C14.67 4.32 14.34 5.64 14 7 C15.98 7.66 17.96 8.32 20 9 C16.51371731 10.16209423 16.13629782 9.88616059 12.98828125 8.34765625 C12.23095703 7.98349609 11.47363281 7.61933594 10.69335938 7.24414062 C9.90767578 6.85419922 9.12199219 6.46425781 8.3125 6.0625 C7.51521484 5.67642578 6.71792969 5.29035156 5.89648438 4.89257812 C3.92653557 3.93709398 1.96150061 2.97267894 0 2 C0 1.34 0 0.68 0 0 Z " fill="#767675" transform="translate(594,214)"/>
<path d="M0 0 C0.45375 0.495 0.9075 0.99 1.375 1.5 C2.87635519 3.22609337 2.87635519 3.22609337 5 3 C5 3.99 5 4.98 5 6 C5.61875 5.34 6.2375 4.68 6.875 4 C9 2 9 2 11 2 C10.75 4.375 10.75 4.375 10 7 C7.82967382 8.64645434 6.59026727 9.0173608 3.875 8.9375 C2 8 2 8 0.75 5.625 C0 3 0 3 0 0 Z " fill="#D3D4D6" transform="translate(751,487)"/>
<path d="M0 0 C0.99 0.495 0.99 0.495 2 1 C2.80943808 3.58783855 3.4993744 6.11773821 4.125 8.75 C4.30675781 9.46671875 4.48851562 10.1834375 4.67578125 10.921875 C5.59700764 14.68989874 6.23088267 18.09038683 6 22 C5.34 21.67 4.68 21.34 4 21 C3.19056192 18.41216145 2.5006256 15.88226179 1.875 13.25 C1.60236328 12.17492187 1.60236328 12.17492187 1.32421875 11.078125 C0.40299236 7.31010126 -0.23088267 3.90961317 0 0 Z " fill="#7F7E7E" transform="translate(742,366)"/>
<path d="M0 0 C0.66 0 1.32 0 2 0 C11.67547858 16.0597083 11.67547858 16.0597083 10.6015625 22.32421875 C10.40304687 22.87722656 10.20453125 23.43023437 10 24 C6.66666667 16 3.33333333 8 0 0 Z " fill="#7D7D7E" transform="translate(719,293)"/>
<path d="M0 0 C0.66 0.33 1.32 0.66 2 1 C-3.61 6.61 -9.22 12.22 -15 18 C-15 12.50089132 -9.68936771 8.76735434 -6 5 C-4.05347234 3.22256464 -2.09090037 1.6083849 0 0 Z " fill="#131313" transform="translate(197,267)"/>
<path d="M0 0 C1.9375 0.8125 1.9375 0.8125 4 2 C4.33 2.99 4.66 3.98 5 5 C5.66 5 6.32 5 7 5 C11.16125486 9.41642615 14.61772023 14.010121 16 20 C12.10228264 16.40210705 9.12353823 12.25658642 6 8 C4.87663465 6.4987754 3.75169996 4.99872353 2.625 3.5 C1.75 2.33333333 0.875 1.16666667 0 0 Z " fill="#7F7F7F" transform="translate(703,272)"/>
<path d="M0 0 C0.66 0 1.32 0 2 0 C2.36279456 1.28926992 2.71496698 2.58153272 3.0625 3.875 C3.25972656 4.59429687 3.45695313 5.31359375 3.66015625 6.0546875 C4 8 4 8 3 10 C2.34 9.67 1.68 9.34 1 9 C1.33 8.34 1.66 7.68 2 7 C0.35 7.33 -1.3 7.66 -3 8 C-3 7.34 -3 6.68 -3 6 C-2.01 5.67 -1.02 5.34 0 5 C-1.32 4.34 -2.64 3.68 -4 3 C-2.68 2.67 -1.36 2.34 0 2 C0 1.34 0 0.68 0 0 Z " fill="#484943" transform="translate(740,491)"/>
<path d="M0 0 C-1.65 0.33 -3.3 0.66 -5 1 C-5 1.66 -5 2.32 -5 3 C-13.42857143 5.28571429 -13.42857143 5.28571429 -18 5 C-17 3 -17 3 -14.19921875 1.89453125 C-12.46091797 1.35892578 -12.46091797 1.35892578 -10.6875 0.8125 C-9.53636719 0.44769531 -8.38523437 0.08289063 -7.19921875 -0.29296875 C-4.20460307 -0.95478247 -2.80251881 -1.08640853 0 0 Z " fill="#80827F" transform="translate(766,509)"/>
<path d="M0 0 C0.99 0 1.98 0 3 0 C3 0.99 3 1.98 3 3 C3.86625 3.268125 4.7325 3.53625 5.625 3.8125 C8.91791964 4.97111987 11.91127875 6.38209839 15 8 C12.04893565 9.25348607 11.02593537 9.01044806 7.984375 7.78515625 C6.91703125 7.21667969 5.8496875 6.64820313 4.75 6.0625 C3.67234375 5.49660156 2.5946875 4.93070313 1.484375 4.34765625 C0.66453125 3.90292969 -0.1553125 3.45820313 -1 3 C-0.67 2.01 -0.34 1.02 0 0 Z " fill="#757575" transform="translate(663,245)"/>
<path d="M0 0 C1.98 0.66 3.96 1.32 6 2 C6 2.33 6 2.66 6 3 C3.69 3.33 1.38 3.66 -1 4 C-1 5.65 -1 7.3 -1 9 C-1.66 9 -2.32 9 -3 9 C-3.75 6.75 -3.75 6.75 -4 4 C-2.0625 1.6875 -2.0625 1.6875 0 0 Z M3 0 C5 1 5 1 5 1 Z " fill="#3C3B39" transform="translate(734,488)"/>
<path d="M0 0 C0.99 0 1.98 0 3 0 C3.02698189 1.62490954 3.04638757 3.24994633 3.0625 4.875 C3.07410156 5.77992188 3.08570313 6.68484375 3.09765625 7.6171875 C3 10 3 10 2 12 C0.68 12 -0.64 12 -2 12 C-2 11.34 -2 10.68 -2 10 C-1.01 9.67 -0.02 9.34 1 9 C1.33 7.35 1.66 5.7 2 4 C1.34 4 0.68 4 0 4 C0 2.68 0 1.36 0 0 Z " fill="#BFC0C1" transform="translate(728,493)"/>
<path d="M0 0 C5.28137429 0.51525603 8.57221156 2.25477117 13 5 C12.67 5.66 12.34 6.32 12 7 C8.04 5.02 4.08 3.04 0 1 C0 0.67 0 0.34 0 0 Z " fill="#767575" transform="translate(616,225)"/>
<path d="M0 0 C2.475 0.99 2.475 0.99 5 2 C4.01 2.495 4.01 2.495 3 3 C1.86649466 5.01669827 1.86649466 5.01669827 1 7 C0.34 7 -0.32 7 -1 7 C-1 6.01 -1 5.02 -1 4 C-1.66 3.67 -2.32 3.34 -3 3 C-2.01 2.01 -1.02 1.02 0 0 Z " fill="#989896" transform="translate(757,486)"/>
<path d="M0 0 C0.33 0 0.66 0 1 0 C1.33 6.27 1.66 12.54 2 19 C1.67 19 1.34 19 1 19 C1 17.02 1 15.04 1 13 C0.34 13 -0.32 13 -1 13 C-0.67 8.71 -0.34 4.42 0 0 Z " fill="#313130" transform="translate(645,810)"/>
<path d="M0 0 C0.99 0.495 0.99 0.495 2 1 C2.37400786 3.32716 2.70764733 5.66117862 3 8 C3.33 8.33 3.66 8.66 4 9 C4.04063832 10.66617115 4.042721 12.33388095 4 14 C3.34 13.67 2.68 13.34 2 13 C0.66649933 8.55499776 -0.29175731 4.6681169 0 0 Z " fill="#7B7A7A" transform="translate(736,342)"/>
<path d="M0 0 C0.66 0 1.32 0 2 0 C2 2.64 2 5.28 2 8 C0.68 7.67 -0.64 7.34 -2 7 C-2 5.68 -2 4.36 -2 3 C-1.34 3 -0.68 3 0 3 C0 2.01 0 1.02 0 0 Z " fill="#B5B5B5" transform="translate(750,490)"/>
<path d="M0 0 C0.66 0 1.32 0 2 0 C1.67 1.65 1.34 3.3 1 5 C-0.65 5.33 -2.3 5.66 -4 6 C-4.33 5.34 -4.66 4.68 -5 4 C-4.360625 3.71125 -3.72125 3.4225 -3.0625 3.125 C-0.84793921 2.17176549 -0.84793921 2.17176549 0 0 Z " fill="#E7E9EB" transform="translate(760,489)"/>
<path d="M0 0 C2.92509086 3.90012114 3.47535095 5.38308839 4 10 C3.01 10 2.02 10 1 10 C0.67 6.7 0.34 3.4 0 0 Z " fill="#7C7C7C" transform="translate(731,322)"/>
<path d="M0 0 C0 0.66 0 1.32 0 2 C-2.64738916 3.4606285 -3.89448334 4 -7 4 C-7 3.01 -7 2.02 -7 1 C-4.53721199 -0.231394 -2.7204945 -0.07159196 0 0 Z " fill="#E6E7EA" transform="translate(740,491)"/>
<path d="M0 0 C3.00617269 3.00617269 2.59585316 5.82381598 3 10 C2.34 10 1.68 10 1 10 C0.67 6.7 0.34 3.4 0 0 Z " fill="#7A7A7A" transform="translate(762,452)"/>
<path d="M0 0 C0.66 0.33 1.32 0.66 2 1 C1.09972412 2.03531726 0.17906965 3.05294165 -0.75 4.0625 C-1.51570313 4.91521484 -1.51570313 4.91521484 -2.296875 5.78515625 C-2.85890625 6.18605469 -3.4209375 6.58695313 -4 7 C-5.32 6.67 -6.64 6.34 -8 6 C-5.36 4.02 -2.72 2.04 0 0 Z " fill="#161616" transform="translate(337,194)"/>
<path d="M0 0 C1.65 0 3.3 0 5 0 C4.67 1.32 4.34 2.64 4 4 C2.35 3.67 0.7 3.34 -1 3 C-0.67 2.01 -0.34 1.02 0 0 Z " fill="#585858" transform="translate(81,5)"/>
<path d="M0 0 C-2.67478244 1.6627026 -4.9995144 2.99983813 -8 4 C-8.66 3.34 -9.32 2.68 -10 2 C-3.375 -1.125 -3.375 -1.125 0 0 Z " fill="#757775" transform="translate(774,505)"/>
<path d="M0 0 C0.99 0.33 1.98 0.66 3 1 C2.6875 3.375 2.6875 3.375 2 6 C1.01 6.66 0.02 7.32 -1 8 C-0.67 5.36 -0.34 2.72 0 0 Z " fill="#22211F" transform="translate(731,497)"/>
<path d="M0 0 C0.66 0 1.32 0 2 0 C3.62950412 4.12168689 4.26264601 6.70700357 3 11 C2.34 10.67 1.68 10.34 1 10 C0.5859375 7.71484375 0.5859375 7.71484375 0.375 4.9375 C0.30023437 4.01839844 0.22546875 3.09929687 0.1484375 2.15234375 C0.09945312 1.44207031 0.05046875 0.73179687 0 0 Z " fill="#383837" transform="translate(760,483)"/>
<path d="M0 0 C0.99 0.33 1.98 0.66 3 1 C2.34 2.65 1.68 4.3 1 6 C-0.98 5.34 -2.96 4.68 -5 4 C-4.0409375 3.8453125 -4.0409375 3.8453125 -3.0625 3.6875 C-2.381875 3.460625 -1.70125 3.23375 -1 3 C-0.67 2.01 -0.34 1.02 0 0 Z " fill="#33322F" transform="translate(750,484)"/>
<path d="M0 0 C0.66 0 1.32 0 2 0 C2.33 2.97 2.66 5.94 3 9 C2.34 8.67 1.68 8.34 1 8 C0.40644386 5.35139573 0.25790731 2.70802678 0 0 Z " fill="#7C7C7C" transform="translate(759,442)"/>
<path d="M0 0 C2 2 2 2 2.1953125 3.9453125 C2.13020833 5.96354167 2.06510417 7.98177083 2 10 C1.34 9.67 0.68 9.34 0 9 C-0.44921875 7.1875 -0.44921875 7.1875 -0.6875 5 C-0.77386719 4.278125 -0.86023438 3.55625 -0.94921875 2.8125 C-0.96597656 2.214375 -0.98273437 1.61625 -1 1 C-0.67 0.67 -0.34 0.34 0 0 Z " fill="#777877" transform="translate(756,425)"/>
<path d="M0 0 C1.65 0 3.3 0 5 0 C5 0.66 5 1.32 5 2 C3.35 2.66 1.7 3.32 0 4 C0 2.68 0 1.36 0 0 Z " fill="#616161" transform="translate(81,1143)"/>
</svg>
