<svg xmlns="http://www.w3.org/2000/svg" width="18" height="18" viewBox="0 0 48 48">
  <path fill="#EA4335" d="M24 9.5c3.54 0 6.71 1.22 9.21 3.6l6.85-6.85C35.54 2.68 30.15 0 24 0 14.62 0 6.44 5.38 2.56 13.22l7.98 6.19C12.66 13.45 17.88 9.5 24 9.5z"/>
  <path fill="#4285F4" d="M46.5 24.5c0-1.56-.14-3.06-.39-4.5H24v9h12.85c-.56 2.92-2.23 5.39-4.74 7.05l7.31 5.68C43.94 38.3 46.5 31.9 46.5 24.5z"/>
  <path fill="#FBBC05" d="M10.54 28.41c-.48-1.41-.74-2.91-.74-4.41s.26-3 .74-4.41L2.56 13.22C.91 16.28 0 20.01 0 24s.91 7.72 2.56 10.78l7.98-6.37z"/>
  <path fill="#34A853" d="M24 48c6.48 0 11.91-2.13 15.88-5.79l-7.31-5.68c-2.01 1.35-4.6 2.12-8.57 2.12-6.12 0-11.34-3.95-13.46-9.51l-7.98 6.37C6.44 42.62 14.62 48 24 48z"/>
  <path fill="none" d="M0 0h48v48H0z"/>
</svg>
