<svg width="561" height="147" viewBox="0 0 561 147" fill="none" xmlns="http://www.w3.org/2000/svg">
<path d="M6.49007 147V0.558136H46.1791C56.8295 0.558136 64.5676 3.16525 69.3935 8.37946C74.2749 13.5382 76.7156 22.0807 76.7156 34.0068V40.4136C76.7156 47.2919 75.4675 52.8667 72.9713 57.1379C70.5306 61.4092 66.7864 64.2104 61.7386 65.5417C68.3396 67.2058 72.7495 71.1165 74.9683 77.2737C77.2426 83.3754 78.3797 90.8362 78.3797 99.656C78.3797 109.141 77.4922 117.434 75.7171 124.534C73.9421 131.635 70.7248 137.154 66.0653 141.092C61.4058 145.031 54.777 147 46.1791 147H6.49007ZM35.1128 55.7234H41.1036C43.8216 55.7234 45.569 54.6695 46.3455 52.5616C47.1221 50.4538 47.5104 47.9299 47.5104 44.9899V30.2625C47.5104 25.5476 45.4303 23.1901 41.27 23.1901H35.1128V55.7234ZM38.025 121.206C45.6244 121.206 49.4242 117.601 49.4242 110.39V92.0843C49.4242 87.924 48.7862 84.6513 47.5104 82.266C46.2901 79.8253 43.9603 78.605 40.5212 78.605H35.1128V121.04C36.3331 121.151 37.3039 121.206 38.025 121.206ZM88.0315 147V0.558136H146.608V28.848H117.819V57.3876H145.443V84.9286H117.819V118.46H148.522V147H88.0315ZM169.739 147L154.014 0.558136H182.636L190.707 92.9996L198.945 0.558136H226.236L234.057 92.9996L241.879 0.558136H270.834L254.859 147H219.746L212.424 76.5248L205.435 147H169.739ZM279.571 147V0.558136H338.148V28.848H309.358V57.3876H336.983V84.9286H309.358V118.46H340.061V147H279.571ZM345.802 147L359.947 0.558136H409.621L423.516 147H395.809L393.729 123.37H376.089L374.259 147H345.802ZM378.169 99.9888H391.482L385.076 25.5198H383.744L378.169 99.9888ZM432.503 147V0.558136H477.434C484.922 0.558136 490.58 2.27772 494.408 5.71688C498.235 9.10058 500.787 13.871 502.063 20.0282C503.394 26.13 504.06 33.3134 504.06 41.5785C504.06 49.5662 503.033 55.9453 500.981 60.7158C498.984 65.4862 495.184 68.7867 489.582 70.6172C494.186 71.5602 497.403 73.8623 499.234 77.5233C501.12 81.1289 502.063 85.8161 502.063 91.5851V147H473.19V89.6713C473.19 85.4001 472.303 82.7653 470.528 81.7668C468.808 80.7129 466.007 80.1859 462.124 80.1859V147H432.503ZM462.29 54.8082H469.363C473.412 54.8082 475.437 50.3983 475.437 41.5785C475.437 35.865 474.993 32.1208 474.105 30.3457C473.218 28.5707 471.554 27.6832 469.113 27.6832H462.29V54.8082Z" fill="white"/>
<path d="M539.409 0.999985C543.55 0.999985 547.251 1.9166 550.51 3.74982C553.837 5.58304 556.417 8.16313 558.25 11.4901C560.083 14.7492 561 18.4835 561 22.6931C561 26.8348 560.083 30.5352 558.25 33.7943C556.417 37.0534 553.837 39.6334 550.51 41.5346C547.251 43.3678 543.55 44.2844 539.409 44.2844C535.267 44.2844 531.533 43.3678 528.206 41.5346C524.947 39.6334 522.367 37.0534 520.465 33.7943C518.632 30.5352 517.716 26.8348 517.716 22.6931C517.716 18.4835 518.632 14.7492 520.465 11.4901C522.367 8.16313 524.947 5.58304 528.206 3.74982C531.533 1.9166 535.267 0.999985 539.409 0.999985ZM539.409 39.0903C544.297 39.0903 548.201 37.5965 551.121 34.6091C554.108 31.5537 555.602 27.5817 555.602 22.6931C555.602 17.7366 554.108 13.7646 551.121 10.7772C548.201 7.7218 544.297 6.19411 539.409 6.19411C534.52 6.19411 530.616 7.7218 527.696 10.7772C524.777 13.7646 523.317 17.7366 523.317 22.6931C523.317 27.6496 524.777 31.6216 527.696 34.6091C530.616 37.5965 534.52 39.0903 539.409 39.0903ZM548.982 18.6193C548.982 20.113 548.609 21.4031 547.862 22.4894C547.183 23.5758 546.198 24.3905 544.908 24.9337L550.204 33.2851H542.26L537.881 25.6466H537.27V33.2851H530.446V11.4901H541.14C543.516 11.4901 545.418 12.1691 546.843 13.527C548.269 14.817 548.982 16.5145 548.982 18.6193ZM537.168 20.5544H540.427C540.902 20.5544 541.31 20.4186 541.649 20.147C541.989 19.8754 542.159 19.468 542.159 18.9248C542.159 17.9064 541.581 17.3971 540.427 17.3971H537.168V20.5544Z" fill="white"/>
</svg>
