<?xml version="1.0" standalone="no"?>
<!DOCTYPE svg PUBLIC "-//W3C//DTD SVG 20010904//EN"
 "http://www.w3.org/TR/2001/REC-SVG-20010904/DTD/svg10.dtd">
<svg version="1.0" xmlns="http://www.w3.org/2000/svg"
 width="436.000000pt" height="436.000000pt" viewBox="0 0 436.000000 436.000000"
 preserveAspectRatio="xMidYMid meet">

<g transform="translate(0.000000,436.000000) scale(0.100000,-0.100000)"
fill="#000000" stroke="none">
<path d="M1947 3945 c-412 -57 -790 -246 -1087 -545 -211 -212 -358 -461 -439
-745 -57 -199 -66 -267 -66 -525 1 -217 3 -245 27 -361 113 -524 432 -962 897
-1228 530 -303 1189 -322 1747 -51 638 310 1036 941 1036 1640 0 696 -382
1310 -1012 1625 -345 173 -735 240 -1103 190z m372 -165 c530 -41 1009 -313
1301 -740 131 -192 229 -454 261 -695 17 -131 6 -423 -20 -547 -69 -319 -217
-586 -460 -829 -292 -290 -625 -448 -1039 -490 -726 -75 -1430 348 -1719 1030
-48 116 -96 284 -113 405 -24 161 -11 440 26 591 176 709 778 1218 1507 1274
56 5 107 9 112 10 6 0 70 -4 144 -9z"/>
<path d="M2045 3170 c-255 -40 -502 -200 -654 -422 -53 -79 -110 -207 -137
-313 -32 -122 -43 -333 -25 -468 24 -178 102 -361 217 -505 l61 -78 -50 -64
c-77 -103 -77 -94 2 -145 38 -25 74 -45 80 -45 5 0 31 29 56 65 26 36 48 65
50 65 1 0 34 -18 71 -40 161 -94 309 -133 504 -133 164 0 248 20 395 92 285
141 497 441 545 770 18 121 8 354 -20 456 -44 164 -125 315 -227 425 l-55 59
47 66 c26 35 51 67 56 71 5 3 9 9 9 14 0 12 -139 110 -154 110 -6 -1 -32 -30
-58 -65 l-47 -63 -105 53 c-68 34 -138 61 -198 75 -105 25 -271 34 -363 20z
m368 -279 c74 -25 141 -62 138 -76 -3 -9 -322 -444 -755 -1027 l-148 -200 -20
28 c-56 84 -107 215 -127 328 -15 85 -13 301 3 388 63 325 313 558 630 587 95
8 202 -3 279 -28z m337 -238 c44 -53 95 -163 122 -263 20 -74 23 -108 23 -260
0 -152 -3 -185 -23 -253 -71 -247 -248 -442 -462 -508 -194 -60 -397 -40 -557
55 -29 17 -53 34 -53 37 0 6 255 353 729 991 97 131 179 238 183 238 3 0 21
-17 38 -37z"/>
</g>
</svg>
