<?xml version="1.0" standalone="no"?>
<!DOCTYPE svg PUBLIC "-//W3C//DTD SVG 20010904//EN"
 "http://www.w3.org/TR/2001/REC-SVG-20010904/DTD/svg10.dtd">
<svg version="1.0" xmlns="http://www.w3.org/2000/svg"
 width="288.000000pt" height="75.000000pt" viewBox="0 0 288.000000 75.000000"
 preserveAspectRatio="xMidYMid meet">

<g transform="translate(0.000000,75.000000) scale(0.100000,-0.100000)"
fill="#000000" stroke="none">
<path d="M2110 671 c-85 -26 -161 -104 -186 -189 -21 -71 -15 -173 12 -229
l21 -42 -23 -22 c-30 -28 -30 -39 2 -63 25 -18 26 -18 49 4 l24 22 62 -31 c73
-37 155 -42 235 -14 68 23 145 102 169 172 26 78 17 183 -19 246 l-28 47 23
24 23 25 -27 26 -26 27 -25 -23 -24 -23 -65 26 c-66 26 -144 33 -197 17z m133
-112 c20 -5 37 -13 37 -17 0 -4 -50 -59 -110 -122 -121 -128 -130 -130 -130
-32 0 88 34 142 107 168 47 16 49 16 96 3z m111 -111 c3 -13 6 -48 6 -78 0
-65 -24 -110 -72 -140 -48 -29 -148 -26 -186 5 -6 5 223 235 234 235 6 0 14
-10 18 -22z"/>
<path d="M331 423 c44 -131 87 -257 96 -281 l16 -43 81 3 81 3 92 270 c51 148
93 273 93 278 0 4 -32 7 -72 5 l-72 -3 -60 -192 c-34 -106 -63 -193 -66 -193
-3 0 -35 87 -71 193 l-65 192 -67 3 -66 3 80 -238z"/>
<path d="M872 383 l3 -278 200 0 200 0 3 58 3 57 -136 0 -135 0 0 55 0 55 115
0 116 0 -3 58 -3 57 -112 3 -113 3 0 49 0 50 130 0 130 0 0 55 0 55 -200 0
-200 0 2 -277z"/>
<path d="M1383 383 l2 -278 65 0 65 0 3 93 3 92 38 0 c37 0 38 -1 90 -95 l52
-95 63 0 c34 0 65 2 68 6 3 3 -18 49 -48 102 l-53 96 35 29 c48 40 64 76 64
144 0 71 -29 128 -80 157 -31 19 -55 21 -202 24 l-168 4 3 -279z m291 141 c9
-8 16 -31 16 -49 0 -48 -29 -65 -107 -65 l-63 0 0 65 0 65 69 0 c50 0 74 -4
85 -16z"/>
</g>
</svg>
