<?xml version="1.0" standalone="no"?>
<!DOCTYPE svg PUBLIC "-//W3C//DTD SVG 20010904//EN"
 "http://www.w3.org/TR/2001/REC-SVG-20010904/DTD/svg10.dtd">
<svg version="1.0" xmlns="http://www.w3.org/2000/svg"
 width="700.000000pt" height="200.000000pt" viewBox="0 0 700.000000 200.000000"
 preserveAspectRatio="xMidYMid meet">

<g transform="translate(0.000000,200.000000) scale(0.100000,-0.100000)"
fill="#000000" stroke="none">
<path d="M6410 1854 c-74 -32 -113 -90 -113 -169 0 -121 106 -200 226 -170
165 42 180 265 22 336 -48 22 -88 23 -135 3z m167 -67 c31 -30 37 -44 40 -89
3 -41 -1 -60 -17 -86 -24 -38 -34 -35 -64 22 -18 34 -18 37 -3 54 22 24 21 54
-1 82 -14 18 -32 24 -75 28 l-57 4 0 -111 0 -111 30 0 c29 0 30 2 30 43 l0 42
23 -40 c16 -29 30 -41 50 -43 34 -4 35 -15 2 -30 -39 -18 -96 -14 -133 8 -86
53 -96 167 -20 236 33 30 46 34 106 30 46 -2 59 -8 89 -39z m-87 -63 c0 -15
-6 -24 -15 -24 -10 0 -15 10 -15 30 0 22 4 28 15 24 8 -4 15 -17 15 -30z"/>
<path d="M5722 1638 c-21 -29 -46 -65 -55 -79 l-17 -26 -83 25 c-71 22 -101
26 -232 26 -174 1 -254 -17 -385 -85 -149 -77 -264 -213 -316 -372 -24 -72
-27 -98 -27 -212 0 -114 3 -140 27 -212 30 -92 104 -211 167 -267 l40 -37 -46
-67 c-25 -37 -66 -95 -91 -129 l-45 -63 120 0 120 0 57 80 c43 60 62 79 73 74
113 -50 327 -66 472 -36 260 54 443 209 525 447 25 71 28 94 28 210 0 119 -2
137 -30 216 -35 97 -104 209 -164 263 -25 22 -38 41 -34 49 4 7 43 62 86 123
43 62 78 115 78 118 0 3 -52 6 -115 6 l-114 0 -39 -52z m-339 -404 c20 -4 37
-10 37 -15 0 -11 -323 -464 -335 -470 -5 -2 -18 23 -28 56 -26 84 -19 196 18
270 58 120 176 180 308 159z m221 -219 c50 -190 -35 -363 -202 -411 -57 -17
-162 -12 -162 7 0 18 334 479 341 472 5 -5 15 -35 23 -68z"/>
<path d="M480 1551 c0 -4 121 -294 268 -642 l268 -634 215 -3 216 -2 267 632
c148 348 270 639 273 646 4 9 -42 12 -209 12 l-214 0 -155 -370 c-84 -203
-157 -370 -160 -370 -3 0 -73 165 -156 368 l-149 367 -232 3 c-131 1 -232 -2
-232 -7z"/>
<path d="M2037 1553 c-4 -3 -7 -294 -7 -645 l0 -638 540 0 540 0 0 165 0 165
-325 0 -325 0 0 85 0 85 275 0 275 0 0 155 0 155 -275 0 -275 0 0 75 0 75 310
0 310 0 0 165 0 165 -518 0 c-285 0 -522 -3 -525 -7z"/>
<path d="M3280 916 l0 -646 215 0 215 0 0 160 0 160 63 0 62 -1 108 -159 108
-160 230 0 c126 0 229 2 229 4 0 2 -59 91 -131 197 l-132 193 23 15 c12 9 49
40 82 70 224 206 163 603 -114 739 -130 64 -145 66 -570 70 l-388 3 0 -645z
m695 289 c50 -24 80 -88 71 -151 -7 -55 -22 -80 -66 -107 -30 -19 -49 -22
-150 -22 l-115 0 -3 140 c-1 76 0 146 3 153 8 22 208 11 260 -13z"/>
</g>
</svg>
